<?xml version="1.0" encoding="UTF-8" standalone="no"?>
<svg
   viewBox="0 0 576 512"
   version="1.1"
   id="svg1"
   sodipodi:docname="crown.svg"
   inkscape:version="1.4.2 (ebf0e940d0, 2025-05-08)"
   xmlns:inkscape="http://www.inkscape.org/namespaces/inkscape"
   xmlns:sodipodi="http://sodipodi.sourceforge.net/DTD/sodipodi-0.dtd"
   xmlns="http://www.w3.org/2000/svg"
   xmlns:svg="http://www.w3.org/2000/svg">
  <defs
     id="defs1" />
  <sodipodi:namedview
     id="namedview1"
     pagecolor="#505050"
     bordercolor="#eeeeee"
     borderopacity="1"
     inkscape:showpageshadow="0"
     inkscape:pageopacity="0"
     inkscape:pagecheckerboard="0"
     inkscape:deskcolor="#505050"
     inkscape:zoom="1.6054688"
     inkscape:cx="287.76642"
     inkscape:cy="256"
     inkscape:window-width="1920"
     inkscape:window-height="1008"
     inkscape:window-x="0"
     inkscape:window-y="0"
     inkscape:window-maximized="1"
     inkscape:current-layer="svg1" />
  <!--!Font Awesome Free v7.0.0 by @fontawesome - https://fontawesome.com License - https://fontawesome.com/license/free Copyright 2025 Fonticons, Inc.-->
  <path
     d="M313 87.2c9.2-7.3 15-18.6 15-31.2 0-22.1-17.9-40-40-40s-40 17.9-40 40c0 12.6 5.9 23.9 15 31.2L194.6 194.8c-10 15.7-31.3 19.6-46.2 8.4L88.9 158.7c4.5-6.4 7.1-14.3 7.1-22.7 0-22.1-17.9-40-40-40s-40 17.9-40 40c0 21.8 17.5 39.6 39.2 40L87.8 393.5c4.7 31.3 31.6 54.5 63.3 54.5l273.8 0c31.7 0 58.6-23.2 63.3-54.5L520.8 176c21.7-.4 39.2-18.2 39.2-40 0-22.1-17.9-40-40-40s-40 17.9-40 40c0 8.4 2.6 16.3 7.1 22.7l-59.4 44.6c-14.9 11.2-36.2 7.3-46.2-8.4L313 87.2z"
     id="path1"
     style="fill:#ffffff" />
</svg>
