<?xml version="1.0" encoding="UTF-8" standalone="no"?>
<svg
   viewBox="0 0 351.99774 641.25745"
   version="1.1"
   id="svg1"
   sodipodi:docname="key.svg"
   inkscape:version="1.4.2 (ebf0e940d0, 2025-05-08)"
   width="351.99774"
   height="641.25745"
   xmlns:inkscape="http://www.inkscape.org/namespaces/inkscape"
   xmlns:sodipodi="http://sodipodi.sourceforge.net/DTD/sodipodi-0.dtd"
   xmlns="http://www.w3.org/2000/svg"
   xmlns:svg="http://www.w3.org/2000/svg">
  <defs
     id="defs1" />
  <sodipodi:namedview
     id="namedview1"
     pagecolor="#505050"
     bordercolor="#eeeeee"
     borderopacity="1"
     inkscape:showpageshadow="0"
     inkscape:pageopacity="0"
     inkscape:pagecheckerboard="0"
     inkscape:deskcolor="#505050"
     inkscape:zoom="1.1352379"
     inkscape:cx="29.94967"
     inkscape:cy="216.69467"
     inkscape:window-width="1920"
     inkscape:window-height="1008"
     inkscape:window-x="0"
     inkscape:window-y="0"
     inkscape:window-maximized="1"
     inkscape:current-layer="svg1" />
  <!--!Font Awesome Free v7.0.0 by @fontawesome - https://fontawesome.com License - https://fontawesome.com/license/free Copyright 2025 Fonticons, Inc.-->
  <path
     d="m 300.44967,300.44967 c 68.73078,-68.73078 68.73078,-180.17081 0,-248.901585 -68.73078,-68.73078 -180.1708,-68.73078 -248.901583,0 -68.730783,68.730775 -68.730783,180.170805 0,248.901585 13.22289,13.2229 28.07214,23.97092 43.84062,32.10265 v 228.11264 c 0,6.36397 2.54558,12.44508 7.071063,16.97057 l 56.56855,56.56854 c 9.40452,9.40452 24.5366,9.40452 33.94112,0 l 56.56855,-56.56854 c 9.40452,-9.40452 9.40452,-24.53661 0,-33.94113 l -28.28428,-28.28427 28.28428,-28.28427 c 9.40452,-9.40452 9.40452,-24.53661 0,-33.94113 l -28.28428,-28.28427 28.28428,-28.28427 c 4.52548,-4.52548 7.07106,-10.6066 7.07106,-16.97056 v -47.09331 c 15.76848,-8.13173 30.61773,-18.87975 43.84062,-32.10265 z"
     id="path1"
     style="fill:#ffffff"
     sodipodi:nodetypes="sssscsssssscsscsscs" />
</svg>
