<?xml version="1.0" encoding="UTF-8" standalone="no"?>
<svg
   viewBox="0 0 384 544"
   version="1.1"
   id="svg1"
   sodipodi:docname="lock.svg"
   inkscape:version="1.4.2 (ebf0e940d0, 2025-05-08)"
   width="384"
   height="544"
   xmlns:inkscape="http://www.inkscape.org/namespaces/inkscape"
   xmlns:sodipodi="http://sodipodi.sourceforge.net/DTD/sodipodi-0.dtd"
   xmlns="http://www.w3.org/2000/svg"
   xmlns:svg="http://www.w3.org/2000/svg">
  <defs
     id="defs1" />
  <sodipodi:namedview
     id="namedview1"
     pagecolor="#505050"
     bordercolor="#eeeeee"
     borderopacity="1"
     inkscape:showpageshadow="0"
     inkscape:pageopacity="0"
     inkscape:pagecheckerboard="0"
     inkscape:deskcolor="#505050"
     inkscape:zoom="1.6054688"
     inkscape:cx="191.84428"
     inkscape:cy="287.76641"
     inkscape:window-width="1920"
     inkscape:window-height="1008"
     inkscape:window-x="0"
     inkscape:window-y="0"
     inkscape:window-maximized="1"
     inkscape:current-layer="svg1" />
  <!--!Font Awesome Free v7.0.0 by @fontawesome - https://fontawesome.com License - https://fontawesome.com/license/free Copyright 2025 Fonticons, Inc.-->
  <path
     d="m 128,128 v 64 h 128 v -64 c 0,-35.3 -28.7,-64 -64,-64 -35.3,0 -64,28.7 -64,64 z M 64,192 V 128 C 64,57.3 121.3,0 192,0 262.7,0 320,57.3 320,128 v 64 c 35.3,0 64,28.7 64,64 v 224 c 0,35.3 -28.7,64 -64,64 H 64 C 28.7,544 0,515.3 0,480 V 256 c 0,-35.3 28.7,-64 64,-64 z"
     id="path1"
     style="fill:#ffffff" />
</svg>
